<?xml version="1.0" encoding="utf-8"?>
<!-- Generator: Adobe Illustrator 21.0.0, SVG Export Plug-In . SVG Version: 6.00 Build 0)  -->
<svg version="1.1" id="Слой_1" xmlns="http://www.w3.org/2000/svg" xmlns:xlink="http://www.w3.org/1999/xlink" x="0px" y="0px"
	 viewBox="0 0 1130 285" style="enable-background:new 0 0 1130 285;" xml:space="preserve">
<style type="text/css">
	.st0{fill:#00CD9F;}
	.st1{fill:#00A882;}
	.st2{fill:#24AE5F;}
	.st3{fill:#FF5364;}
	.st4{fill:#C03A2B;}
	.st5{fill:#802F34;}
	.st6{fill:#B98125;}
	.st7{fill:#F1DA80;}
	.st8{fill:#AAC606;}
	.st9{fill:#9EBD09;}
	.st10{fill:#D5DC51;}
	.st11{fill:#FCFEA3;}
	.st12{fill:#393D47;}
	.st13{fill:#D13834;}
	.st14{fill:#F75B57;}
	.st15{fill:#4C312C;}
	.st16{fill:#994530;}
	.st17{fill:#659C35;}
	.st18{fill:#ED8F20;}
	.st19{fill:#EF771D;}
	.st20{fill:#9B6026;}
	.st21{fill:#88C057;}
</style>
<g>
	<path d="M124.5,44.1H79.1v117.8H51.7V44.1H6.3V19.9h118.2V44.1z"/>
	<path d="M171.5,163.9c-10.8,0-19-3.5-24.6-10.4c-5.6-6.9-8.4-17.2-8.4-30.8V57.1h26.8v59.8c0,16.1,5.8,24.2,17.4,24.2
		c5.2,0,10.2-1.6,15.1-4.7c4.9-3.1,8.8-7.9,11.9-14.3v-65h26.8v74c0,2.8,0.5,4.8,1.5,6c1,1.2,2.6,1.9,4.9,2v22.8
		c-2.7,0.5-4.9,0.9-6.7,1c-1.8,0.1-3.4,0.2-4.9,0.2c-4.8,0-8.7-1.1-11.7-3.3c-3-2.2-4.8-5.2-5.3-9.1l-0.6-8.4
		c-4.7,7.2-10.7,12.6-18,16.2C188.4,162.1,180.3,163.9,171.5,163.9z"/>
	<path d="M325.9,156.5c-3.6,1.6-8,3.2-13.2,4.8c-5.2,1.6-10.7,2.4-16.4,2.4c-3.7,0-7.2-0.5-10.5-1.4c-3.3-0.9-6.1-2.4-8.6-4.5
		c-2.5-2.1-4.4-4.7-5.9-8c-1.5-3.3-2.2-7.2-2.2-11.9V77.7h-13.8V57.1h13.8v-34h26.8v34h22v20.6h-22v51.2c0,3.7,1,6.4,2.9,7.9
		c1.9,1.5,4.3,2.3,7.1,2.3s5.5-0.5,8.2-1.4c2.7-0.9,4.8-1.7,6.4-2.4L325.9,156.5z"/>
	<path d="M402.7,156.5c-3.6,1.6-8,3.2-13.2,4.8s-10.7,2.4-16.4,2.4c-3.7,0-7.2-0.5-10.5-1.4c-3.3-0.9-6.1-2.4-8.6-4.5
		c-2.5-2.1-4.4-4.7-5.9-8c-1.5-3.3-2.2-7.2-2.2-11.9V77.7h-13.8V57.1h13.8v-34h26.8v34h22v20.6h-22v51.2c0,3.7,1,6.4,2.9,7.9
		c1.9,1.5,4.3,2.3,7.1,2.3s5.5-0.5,8.2-1.4c2.7-0.9,4.8-1.7,6.4-2.4L402.7,156.5z"/>
	<path d="M416.7,161.9V57.1h26.8v104.8H416.7z"/>
	<path d="M602.9,57.1c-0.9-0.9-2.6-2.2-5.1-3.8c-2.5-1.6-5.5-3.2-9-4.7c-3.5-1.5-7.4-2.8-11.5-3.9c-4.1-1.1-8.3-1.6-12.6-1.6
		c-7.6,0-13.3,1.4-17,4.2c-3.7,2.8-5.6,6.7-5.6,11.8c0,2.9,0.7,5.4,2.1,7.3c1.4,1.9,3.4,3.6,6.1,5.1c2.7,1.5,6,2.8,10.1,4
		c4.1,1.2,8.8,2.5,14.1,3.8c6.9,1.9,13.2,3.9,18.9,6c5.7,2.1,10.5,4.8,14.4,8c3.9,3.2,7,7,9.1,11.5c2.1,4.5,3.2,10,3.2,16.5
		c0,7.6-1.4,14.1-4.3,19.5c-2.9,5.4-6.7,9.8-11.6,13.1c-4.9,3.3-10.5,5.8-16.8,7.3c-6.3,1.5-13,2.3-19.9,2.3
		c-10.7,0-21.2-1.6-31.6-4.8c-10.4-3.2-19.7-7.7-28-13.6l12.2-23.8c1.2,1.2,3.4,2.8,6.5,4.7c3.1,1.9,6.8,3.9,11.1,5.8
		c4.3,1.9,9,3.6,14.2,4.9c5.2,1.3,10.5,2,16,2c15.2,0,22.8-4.9,22.8-14.6c0-3.1-0.9-5.7-2.6-7.8c-1.7-2.1-4.2-4-7.4-5.6
		s-7.1-3.1-11.6-4.4c-4.5-1.3-9.6-2.8-15.2-4.4c-6.8-1.9-12.7-3.9-17.7-6.1c-5-2.2-9.2-4.8-12.5-7.8c-3.3-3-5.8-6.5-7.5-10.4
		c-1.7-3.9-2.5-8.6-2.5-14.1c0-7.2,1.3-13.6,4-19.2c2.7-5.6,6.4-10.3,11.1-14c4.7-3.7,10.2-6.6,16.5-8.5c6.3-1.9,13-2.9,20.2-2.9
		c10,0,19.2,1.6,27.6,4.7c8.4,3.1,15.7,6.8,22,11.1L602.9,57.1z"/>
	<path d="M701.1,156.5c-3.6,1.6-8,3.2-13.2,4.8s-10.7,2.4-16.4,2.4c-3.7,0-7.2-0.5-10.5-1.4c-3.3-0.9-6.1-2.4-8.6-4.5
		c-2.5-2.1-4.4-4.7-5.9-8c-1.5-3.3-2.2-7.2-2.2-11.9V77.7h-13.8V57.1h13.8v-34h26.8v34h22v20.6h-22v51.2c0,3.7,1,6.4,2.9,7.9
		c1.9,1.5,4.3,2.3,7.1,2.3s5.5-0.5,8.2-1.4c2.7-0.9,4.8-1.7,6.4-2.4L701.1,156.5z"/>
	<path d="M747.1,163.9c-10.8,0-19-3.5-24.6-10.4c-5.6-6.9-8.4-17.2-8.4-30.8V57.1h26.8v59.8c0,16.1,5.8,24.2,17.4,24.2
		c5.2,0,10.2-1.6,15.1-4.7c4.9-3.1,8.8-7.9,11.9-14.3v-65h26.8v74c0,2.8,0.5,4.8,1.5,6c1,1.2,2.6,1.9,4.9,2v22.8
		c-2.7,0.5-4.9,0.9-6.7,1c-1.8,0.1-3.4,0.2-4.9,0.2c-4.8,0-8.7-1.1-11.7-3.3c-3-2.2-4.8-5.2-5.3-9.1l-0.6-8.4
		c-4.7,7.2-10.7,12.6-18,16.2C763.9,162.1,755.9,163.9,747.1,163.9z"/>
	<path d="M882.1,163.9c-7.2,0-13.9-1.4-20-4.2c-6.1-2.8-11.4-6.7-15.8-11.6c-4.4-4.9-7.8-10.7-10.3-17.3c-2.5-6.6-3.7-13.7-3.7-21.3
		s1.2-14.7,3.5-21.2c2.3-6.5,5.6-12.3,9.7-17.2c4.1-4.9,9.1-8.8,14.8-11.6c5.7-2.8,12-4.2,18.8-4.2c7.7,0,14.7,1.9,20.9,5.6
		c6.2,3.7,11,8.6,14.5,14.6V15.9h26.8v115.2c0,2.8,0.5,4.8,1.4,6c0.9,1.2,2.5,1.9,4.8,2v22.8c-4.7,0.9-8.5,1.4-11.4,1.4
		c-4.8,0-8.7-1.2-11.8-3.6c-3.1-2.4-4.8-5.5-5.2-9.4l-0.6-6.6c-3.9,6.7-9.1,11.7-15.7,15.1C896.2,162.2,889.3,163.9,882.1,163.9z
		 M889.1,141.1c2.5,0,5.1-0.4,7.8-1.3c2.7-0.9,5.1-2.1,7.4-3.7c2.3-1.6,4.3-3.5,6.1-5.6c1.8-2.1,3.2-4.5,4.1-7v-25
		c-1.1-2.9-2.6-5.6-4.5-8.1c-1.9-2.5-4.1-4.6-6.6-6.4c-2.5-1.8-5.1-3.2-7.8-4.3c-2.7-1.1-5.4-1.6-8.1-1.6c-4,0-7.7,0.9-11.1,2.6
		c-3.4,1.7-6.3,4.1-8.7,7.1c-2.4,3-4.3,6.4-5.6,10.3c-1.3,3.9-2,7.9-2,12c0,4.4,0.7,8.5,2.2,12.2c1.5,3.7,3.5,7,6,9.8
		c2.5,2.8,5.6,5,9.1,6.6C880.9,140.3,884.8,141.1,889.1,141.1z"/>
	<path d="M967.7,161.9V57.1h26.8v104.8H967.7z"/>
	<path d="M1067.1,163.9c-8.5,0-16.2-1.5-23-4.4c-6.8-2.9-12.6-6.9-17.3-11.9c-4.7-5-8.4-10.8-10.9-17.3c-2.5-6.5-3.8-13.4-3.8-20.6
		c0-7.3,1.3-14.3,3.8-20.8c2.5-6.5,6.2-12.3,10.9-17.3c4.7-5,10.5-9,17.3-11.9c6.8-2.9,14.5-4.4,23-4.4c8.5,0,16.2,1.5,22.9,4.4
		c6.7,2.9,12.5,6.9,17.2,11.9c4.7,5,8.4,10.8,10.9,17.3c2.5,6.5,3.8,13.5,3.8,20.8c0,7.2-1.3,14.1-3.8,20.6
		c-2.5,6.5-6.1,12.3-10.8,17.3c-4.7,5-10.4,9-17.2,11.9C1083.3,162.5,1075.6,163.9,1067.1,163.9z M1039.7,109.7
		c0,4.7,0.7,8.9,2.1,12.7c1.4,3.8,3.3,7.1,5.8,9.9c2.5,2.8,5.4,5,8.7,6.5c3.3,1.5,6.9,2.3,10.8,2.3c3.9,0,7.5-0.8,10.8-2.3
		c3.3-1.5,6.2-3.7,8.7-6.5c2.5-2.8,4.4-6.1,5.8-10c1.4-3.9,2.1-8.1,2.1-12.8c0-4.5-0.7-8.7-2.1-12.6c-1.4-3.9-3.3-7.2-5.8-10
		c-2.5-2.8-5.4-5-8.7-6.5c-3.3-1.5-6.9-2.3-10.8-2.3c-3.9,0-7.5,0.8-10.8,2.4c-3.3,1.6-6.2,3.8-8.7,6.6c-2.5,2.8-4.4,6.1-5.8,10
		C1040.4,101,1039.7,105.2,1039.7,109.7z"/>
</g>
<g>
	<path class="st0" d="M430.6,41.7c-7.2,2-15.3,0.1-21-5.6c-5.7-5.7-7.6-13.7-5.6-21c7.2-2,15.3-0.1,21,5.6
		C430.7,26.4,432.6,34.4,430.6,41.7z"/>
	<path class="st1" d="M430.6,4c-6.5,3.7-10.9,10.8-10.9,18.8s4.4,15.1,10.9,18.8c6.5-3.7,10.9-10.8,10.9-18.8S437.1,7.7,430.6,4z"/>
	<path class="st0" d="M456.9,14.9c-7.2-2-15.3-0.1-21,5.6c-5.7,5.7-7.6,13.7-5.6,21c7.2,2,15.3,0.1,21-5.6
		C457,30.2,458.9,22.1,456.9,14.9z"/>
</g>
<g>
	<path class="st0" d="M981.6,42.7c-7.2,2-15.3,0.1-21-5.6s-7.6-13.7-5.6-21c7.2-2,15.3-0.1,21,5.6S983.6,35.4,981.6,42.7z"/>
	<path class="st1" d="M981.6,5c-6.5,3.7-10.9,10.8-10.9,18.8s4.4,15.1,10.9,18.8c6.5-3.7,10.9-10.8,10.9-18.8S988.1,8.7,981.6,5z"/>
	<path class="st0" d="M1007.9,15.9c-7.2-2-15.3-0.1-21,5.6s-7.6,13.7-5.6,21c7.2,2,15.3,0.1,21-5.6
		C1008,31.2,1009.9,23.1,1007.9,15.9z"/>
</g>
<g>
	<path d="M6.4,237.9c0-2.5,0.4-4.8,1.3-7.1c0.9-2.2,2.1-4.2,3.6-5.8c1.6-1.7,3.4-3,5.6-3.9c2.2-1,4.6-1.4,7.2-1.4
		c3.4,0,6.3,0.8,8.8,2.3c2.5,1.5,4.4,3.6,5.6,6.2l-4.5,1.4c-1-1.8-2.4-3.2-4.2-4.2c-1.8-1-3.8-1.5-6-1.5c-1.8,0-3.5,0.4-5.1,1.1
		c-1.6,0.7-2.9,1.7-4.1,3c-1.2,1.2-2.1,2.7-2.7,4.5c-0.7,1.7-1,3.6-1,5.6c0,2,0.3,3.9,1,5.6c0.7,1.8,1.6,3.3,2.8,4.6
		c1.2,1.3,2.6,2.3,4.1,3.1c1.6,0.7,3.2,1.1,5,1.1c1.1,0,2.3-0.2,3.4-0.5c1.1-0.3,2.1-0.8,3.1-1.3c1-0.6,1.8-1.2,2.4-1.9
		c0.7-0.7,1.2-1.5,1.4-2.3l4.6,1.4c-0.5,1.3-1.2,2.4-2.2,3.5c-1,1.1-2.1,2-3.4,2.8s-2.7,1.4-4.3,1.8c-1.6,0.4-3.2,0.6-4.9,0.6
		c-2.6,0-5-0.5-7.1-1.5c-2.2-1-4.1-2.3-5.6-4c-1.6-1.7-2.8-3.7-3.7-5.9C6.8,242.8,6.4,240.5,6.4,237.9z"/>
	<path d="M66.6,232.9h7.7c1.6,0,3.2,0.2,4.6,0.7c1.5,0.5,2.7,1.2,3.8,2.2s1.9,2.1,2.6,3.6c0.6,1.4,1,3.1,1,4.9c0,1.9-0.3,3.5-1,4.9
		c-0.6,1.4-1.5,2.6-2.6,3.6s-2.4,1.7-3.8,2.2c-1.5,0.5-3,0.7-4.6,0.7H62.1v-31.4H50.7v-4h15.9V232.9z M74.3,251.8
		c2.4,0,4.2-0.7,5.5-2c1.3-1.3,1.9-3.2,1.9-5.5c0-2.3-0.7-4.1-2-5.5c-1.3-1.3-3.1-2-5.4-2h-7.7v15H74.3z"/>
	<path d="M116.8,256.4c-2.6,0-5-0.5-7.1-1.5c-2.2-1-4-2.3-5.6-4c-1.6-1.7-2.8-3.7-3.7-5.9c-0.9-2.2-1.3-4.6-1.3-7.1
		c0-2.5,0.4-4.8,1.3-7s2.1-4.1,3.7-5.8c1.6-1.7,3.4-3,5.6-3.9c2.2-1,4.5-1.5,7.1-1.5c2.6,0,5,0.5,7.1,1.5c2.2,1,4,2.3,5.5,4
		c1.5,1.7,2.7,3.6,3.6,5.8c0.9,2.2,1.3,4.5,1.3,6.9c0,0.4,0,0.7,0,1.1c0,0.4,0,0.6-0.1,0.7h-30.3c0.1,1.9,0.6,3.7,1.3,5.3
		c0.7,1.6,1.7,3,2.9,4.2c1.2,1.2,2.5,2.1,4,2.8c1.5,0.7,3.1,1,4.9,1c1.1,0,2.3-0.2,3.4-0.5c1.1-0.3,2.2-0.7,3.1-1.3
		c1-0.5,1.8-1.2,2.6-2c0.8-0.8,1.4-1.7,1.8-2.6l4,1.1c-0.5,1.3-1.3,2.5-2.3,3.6c-1,1.1-2.2,2-3.5,2.8c-1.3,0.8-2.8,1.4-4.4,1.8
		C120.2,256.2,118.6,256.4,116.8,256.4z M129.9,236.2c-0.1-1.9-0.6-3.6-1.3-5.2c-0.7-1.6-1.7-2.9-2.9-4c-1.2-1.1-2.5-2-4-2.7
		c-1.5-0.6-3.1-1-4.9-1c-1.7,0-3.4,0.3-4.9,1c-1.5,0.6-2.9,1.5-4,2.7c-1.2,1.1-2.1,2.5-2.8,4.1c-0.7,1.6-1.1,3.3-1.3,5.2H129.9z"/>
	<path d="M145.7,251.7h2c1-0.2,1.9-0.7,2.6-1.5c0.7-0.8,1.4-2,2-3.7c0.6-1.7,1.1-3.8,1.6-6.5c0.5-2.7,0.9-6.1,1.4-10.1l1.1-9.6h20.7
		v31.4h4.4v15h-4.1v-10.9h-27.9v10.9h-3.9V251.7z M172.7,251.7V224h-12l-1,7.9c-0.8,5.6-1.6,10-2.5,13.2c-0.9,3.2-1.9,5.4-3.2,6.7
		H172.7z"/>
	<path d="M212.1,256.4c-2.6,0-4.9-0.5-7.1-1.5c-2.1-1-4-2.3-5.5-4c-1.6-1.7-2.8-3.6-3.6-5.8c-0.9-2.2-1.3-4.6-1.3-7
		c0-2.5,0.4-4.8,1.3-7.1c0.9-2.2,2.1-4.2,3.7-5.8c1.6-1.7,3.4-3,5.5-4c2.1-1,4.5-1.5,7-1.5c2.5,0,4.9,0.5,7,1.5c2.2,1,4,2.3,5.6,4
		c1.6,1.7,2.8,3.6,3.7,5.8c0.9,2.2,1.3,4.6,1.3,7.1c0,2.4-0.4,4.8-1.3,7c-0.9,2.2-2.1,4.2-3.6,5.8c-1.6,1.7-3.4,3-5.6,4
		C217.1,255.9,214.7,256.4,212.1,256.4z M199.2,238.2c0,2,0.3,3.8,1,5.5c0.7,1.7,1.6,3.2,2.8,4.5c1.2,1.3,2.5,2.3,4.1,3
		c1.6,0.7,3.2,1.1,5,1.1c1.8,0,3.4-0.4,5-1.1c1.6-0.7,2.9-1.8,4.1-3.1c1.2-1.3,2.1-2.8,2.8-4.5c0.7-1.7,1-3.6,1-5.6
		c0-1.9-0.3-3.8-1-5.5c-0.7-1.7-1.6-3.3-2.8-4.6c-1.2-1.3-2.6-2.3-4.1-3.1s-3.2-1.1-5-1.1c-1.8,0-3.4,0.4-5,1.1
		c-1.5,0.7-2.9,1.8-4.1,3.1c-1.2,1.3-2.1,2.8-2.8,4.6C199.6,234.3,199.2,236.2,199.2,238.2z"/>
	<path d="M263,211.9c-4,0.9-7.2,2.7-9.5,5.4c-2.3,2.7-3.8,6.5-4.4,11.5c1.4-2.2,3.2-3.9,5.2-5c2.1-1.2,4.5-1.8,7.2-1.8
		c2.3,0,4.4,0.4,6.3,1.3c1.9,0.9,3.5,2.1,4.9,3.6c1.4,1.5,2.4,3.3,3.2,5.5c0.7,2.1,1.1,4.5,1.1,7c0,2.5-0.4,4.9-1.2,7
		c-0.8,2.1-1.9,3.9-3.3,5.4c-1.5,1.5-3.2,2.7-5.3,3.5c-2.1,0.8-4.4,1.3-7,1.3c-5.2,0-9.2-1.8-11.9-5.5c-2.7-3.7-4.1-8.9-4.1-15.6
		c0-4.1,0.4-7.8,1.3-10.9c0.8-3.1,2-5.8,3.6-8.1s3.5-4.1,5.7-5.4c2.3-1.4,4.8-2.4,7.7-3.1l10.6-2.4l0.9,3.9L263,211.9z M249.2,239.1
		c0,1.9,0.3,3.7,0.8,5.3c0.5,1.7,1.3,3.1,2.3,4.3c1,1.2,2.2,2.1,3.7,2.8c1.4,0.7,3,1,4.8,1s3.4-0.3,4.8-1c1.4-0.7,2.7-1.6,3.7-2.8
		s1.8-2.6,2.3-4.2c0.5-1.6,0.8-3.4,0.8-5.3c0-4-1.1-7.2-3.2-9.6c-2.1-2.4-5-3.5-8.6-3.5c-1.7,0-3.2,0.3-4.6,0.9
		c-1.4,0.6-2.6,1.4-3.6,2.5c-1,1.1-1.8,2.5-2.3,4C249.4,235.3,249.2,237.1,249.2,239.1z"/>
	<path d="M297.9,235.6h19.9v-15.3h4.6v35.4h-4.6v-16.3h-19.9v16.3h-4.6v-35.4h4.6V235.6z"/>
	<path d="M340.8,220.3h4.6v12.6h7.7c1.6,0,3.2,0.2,4.6,0.7c1.5,0.5,2.7,1.2,3.8,2.2c1.1,1,1.9,2.1,2.6,3.6c0.6,1.4,1,3.1,1,4.9
		c0,1.9-0.3,3.5-1,4.9c-0.6,1.4-1.5,2.6-2.6,3.6c-1.1,1-2.4,1.7-3.8,2.2c-1.5,0.5-3,0.7-4.6,0.7h-12.2V220.3z M353.1,251.8
		c2.4,0,4.2-0.7,5.5-2c1.3-1.3,1.9-3.2,1.9-5.5c0-2.3-0.7-4.1-2-5.5c-1.3-1.3-3.1-2-5.4-2h-7.7v15H353.1z M369.5,220.3h4.5v35.4
		h-4.5V220.3z"/>
	<path d="M407.7,256.4c-2.6,0-5-0.5-7.1-1.5c-2.2-1-4-2.3-5.6-4c-1.6-1.7-2.8-3.7-3.7-5.9c-0.9-2.2-1.3-4.6-1.3-7.1
		c0-2.5,0.4-4.8,1.3-7s2.1-4.1,3.7-5.8c1.6-1.7,3.4-3,5.6-3.9c2.2-1,4.5-1.5,7.1-1.5c2.6,0,5,0.5,7.1,1.5c2.2,1,4,2.3,5.5,4
		c1.5,1.7,2.7,3.6,3.6,5.8c0.9,2.2,1.3,4.5,1.3,6.9c0,0.4,0,0.7,0,1.1c0,0.4,0,0.6-0.1,0.7h-30.3c0.1,1.9,0.6,3.7,1.3,5.3
		c0.7,1.6,1.7,3,2.9,4.2c1.2,1.2,2.5,2.1,4,2.8c1.5,0.7,3.1,1,4.9,1c1.1,0,2.3-0.2,3.4-0.5c1.1-0.3,2.2-0.7,3.1-1.3
		c1-0.5,1.8-1.2,2.6-2c0.8-0.8,1.4-1.7,1.8-2.6l4,1.1c-0.5,1.3-1.3,2.5-2.3,3.6c-1,1.1-2.2,2-3.5,2.8c-1.3,0.8-2.8,1.4-4.4,1.8
		C411,256.2,409.4,256.4,407.7,256.4z M420.7,236.2c-0.1-1.9-0.6-3.6-1.3-5.2c-0.7-1.6-1.7-2.9-2.9-4c-1.2-1.1-2.5-2-4-2.7
		c-1.5-0.6-3.1-1-4.9-1c-1.7,0-3.4,0.3-4.9,1c-1.5,0.6-2.9,1.5-4,2.7c-1.2,1.1-2.1,2.5-2.8,4.1c-0.7,1.6-1.1,3.3-1.3,5.2H420.7z"/>
	<path d="M483.3,211.9c-4,0.9-7.2,2.7-9.5,5.4c-2.3,2.7-3.8,6.5-4.4,11.5c1.4-2.2,3.2-3.9,5.2-5c2.1-1.2,4.5-1.8,7.2-1.8
		c2.3,0,4.4,0.4,6.3,1.3c1.9,0.9,3.5,2.1,4.9,3.6c1.4,1.5,2.4,3.3,3.2,5.5c0.7,2.1,1.1,4.5,1.1,7c0,2.5-0.4,4.9-1.2,7
		c-0.8,2.1-1.9,3.9-3.3,5.4c-1.5,1.5-3.2,2.7-5.3,3.5c-2.1,0.8-4.4,1.3-7,1.3c-5.2,0-9.2-1.8-11.9-5.5c-2.7-3.7-4.1-8.9-4.1-15.6
		c0-4.1,0.4-7.8,1.3-10.9c0.8-3.1,2-5.8,3.6-8.1s3.5-4.1,5.7-5.4c2.3-1.4,4.8-2.4,7.7-3.1l10.6-2.4l0.9,3.9L483.3,211.9z
		 M469.5,239.1c0,1.9,0.3,3.7,0.8,5.3c0.5,1.7,1.3,3.1,2.3,4.3c1,1.2,2.2,2.1,3.7,2.8c1.4,0.7,3,1,4.8,1s3.4-0.3,4.8-1
		c1.4-0.7,2.7-1.6,3.7-2.8s1.8-2.6,2.3-4.2c0.5-1.6,0.8-3.4,0.8-5.3c0-4-1.1-7.2-3.2-9.6c-2.1-2.4-5-3.5-8.6-3.5
		c-1.7,0-3.2,0.3-4.6,0.9c-1.4,0.6-2.6,1.4-3.6,2.5c-1,1.1-1.8,2.5-2.3,4C469.8,235.3,469.5,237.1,469.5,239.1z"/>
	<path d="M513.6,265.1c0.7,0.6,1.4,1.1,2,1.3c0.7,0.2,1.4,0.3,2.2,0.3c0.6,0,1.2-0.2,1.7-0.5c0.6-0.3,1.1-0.9,1.7-1.8
		c0.6-0.8,1.1-2,1.7-3.4c0.6-1.4,1.2-3.2,2-5.4l-15.4-35.4h4.8l13.1,31.1l12.2-31.1h4.4l-16.5,41.3c-0.7,1.8-1.4,3.2-2.1,4.4
		c-0.7,1.2-1.4,2.1-2.2,2.9c-0.7,0.7-1.5,1.2-2.4,1.5c-0.8,0.3-1.8,0.4-2.8,0.4c-2,0-3.6-0.5-4.7-1.6L513.6,265.1z"/>
	<path d="M579.6,220.3h5.2l-13.4,17.1l14.6,18.3h-5.2l-12.5-16.2h-5v16.2h-4.6v-35.4h4.6v15.6h4.6L579.6,220.3z"/>
	<path d="M615,256.4c-2.6,0-5-0.5-7.1-1.5c-2.2-1-4-2.3-5.6-4c-1.6-1.7-2.8-3.7-3.7-5.9c-0.9-2.2-1.3-4.6-1.3-7.1
		c0-2.5,0.4-4.8,1.3-7s2.1-4.1,3.7-5.8c1.6-1.7,3.4-3,5.6-3.9c2.2-1,4.5-1.5,7.1-1.5c2.6,0,5,0.5,7.1,1.5c2.2,1,4,2.3,5.5,4
		c1.5,1.7,2.7,3.6,3.6,5.8c0.9,2.2,1.3,4.5,1.3,6.9c0,0.4,0,0.7,0,1.1c0,0.4,0,0.6-0.1,0.7h-30.3c0.1,1.9,0.6,3.7,1.3,5.3
		c0.7,1.6,1.7,3,2.9,4.2c1.2,1.2,2.5,2.1,4,2.8c1.5,0.7,3.1,1,4.9,1c1.1,0,2.3-0.2,3.4-0.5c1.1-0.3,2.2-0.7,3.1-1.3
		c1-0.5,1.8-1.2,2.6-2c0.8-0.8,1.4-1.7,1.8-2.6l4,1.1c-0.5,1.3-1.3,2.5-2.3,3.6c-1,1.1-2.2,2-3.5,2.8c-1.3,0.8-2.8,1.4-4.4,1.8
		C618.4,256.2,616.7,256.4,615,256.4z M628.1,236.2c-0.1-1.9-0.6-3.6-1.3-5.2c-0.7-1.6-1.7-2.9-2.9-4c-1.2-1.1-2.5-2-4-2.7
		c-1.5-0.6-3.1-1-4.9-1c-1.7,0-3.4,0.3-4.9,1c-1.5,0.6-2.9,1.5-4,2.7c-1.2,1.1-2.1,2.5-2.8,4.1c-0.7,1.6-1.1,3.3-1.3,5.2H628.1z"/>
	<path d="M661,255.7h-4.5v-31.4h-12.4v-4h29.4v4H661V255.7z"/>
	<path d="M688.2,220.3h4.6v12.6h7.7c1.6,0,3.2,0.2,4.6,0.7c1.5,0.5,2.7,1.2,3.8,2.2s1.9,2.1,2.6,3.6c0.6,1.4,1,3.1,1,4.9
		c0,1.9-0.3,3.5-1,4.9s-1.5,2.6-2.6,3.6s-2.4,1.7-3.8,2.2c-1.5,0.5-3,0.7-4.6,0.7h-12.2V220.3z M700.5,251.8c2.4,0,4.2-0.7,5.5-2
		c1.3-1.3,1.9-3.2,1.9-5.5c0-2.3-0.7-4.1-2-5.5c-1.3-1.3-3.1-2-5.4-2h-7.7v15H700.5z M716.9,220.3h4.5v35.4h-4.5V220.3z"/>
</g>
<g>
	<path class="st2" d="M1060,214.8l42.9,52.7c0.8,0.8,6.4-4.8,7.2-5.6c0,0,0.1-0.1,0.1-0.1c13-14.7,11.5-37.1-3.2-50.1
		c-13.4-11.8-33.5-11.8-46.9,0c-0.9,0.8-5.4,5.3-4.6,6.2C1055.5,217.9,1059.9,214.7,1060,214.8z"/>
	<g>
		<path class="st2" d="M1107.2,261.7l-47.1-47.1c-0.8-0.8-2.2-0.8-3,0c0,0-0.1,0.1-0.1,0.1c-13,14.7-11.5,37.1,3.2,50.1
			c13.4,11.8,33.5,11.8,46.9,0C1108,264,1108.1,262.7,1107.2,261.7C1107.3,261.8,1107.3,261.7,1107.2,261.7z"/>
		<path class="st3" d="M1105.3,259.8l-43.2-43.2c-11.9,11.9-11.9,31.3,0,43.2C1074,271.7,1093.4,271.7,1105.3,259.8z"/>
		<path class="st4" d="M1088,242.5l-8.6-8.6c-2.4,2.4-2.4,6.3,0,8.6C1081.8,244.9,1085.6,244.9,1088,242.5z"/>
		<g>
			<path class="st5" d="M1066.4,256.5c-0.6,0-1-0.5-1-1c0-0.3,0.1-0.5,0.3-0.7l1.7-1.7c0.4-0.4,1.1-0.4,1.5,0c0.4,0.4,0.4,1.1,0,1.5
				l-1.7,1.7C1066.9,256.4,1066.7,256.5,1066.4,256.5z"/>
			<path class="st5" d="M1068.9,247.7c-0.6,0-1-0.5-1-1c0-0.4,0.2-0.7,0.5-0.9l2.1-1.2c0.5-0.3,1.1-0.1,1.4,0.4s0.1,1.1-0.4,1.4l0,0
				l-2.1,1.2C1069.2,247.7,1069,247.7,1068.9,247.7z"/>
			<path class="st5" d="M1069,239.2h-2.4c-0.6,0-1-0.5-1-1s0.5-1,1-1h2.4c0.6,0,1,0.5,1,1S1069.6,239.2,1069,239.2z"/>
			<path class="st5" d="M1071,231.8c-0.2,0-0.4,0-0.5-0.1l-2.1-1.2c-0.5-0.3-0.7-0.9-0.4-1.4c0.3-0.5,0.9-0.7,1.4-0.4l2.1,1.2
				c0.5,0.3,0.7,0.9,0.4,1.4C1071.7,231.6,1071.3,231.8,1071,231.8L1071,231.8z"/>
			<path class="st5" d="M1092.3,254c-0.4,0-0.7-0.2-0.9-0.5l-1.2-2.1c-0.3-0.5-0.1-1.1,0.4-1.4c0.5-0.3,1.1-0.1,1.4,0.4c0,0,0,0,0,0
				l1.2,2.1c0.3,0.5,0.1,1.1-0.4,1.4C1092.6,254,1092.4,254,1092.3,254L1092.3,254z"/>
			<path class="st5" d="M1083.7,256.3c-0.6,0-1-0.5-1-1v-2.4c0-0.6,0.5-1,1-1s1,0.5,1,1v2.4C1084.7,255.8,1084.3,256.3,1083.7,256.3
				z"/>
			<path class="st5" d="M1075.1,254c-0.6,0-1-0.5-1-1c0-0.2,0-0.4,0.1-0.5l1.2-2.1c0.3-0.5,0.9-0.7,1.4-0.4c0.5,0.3,0.7,0.9,0.4,1.4
				v0l-1.2,2.1C1075.8,253.8,1075.5,254,1075.1,254z"/>
			<path class="st5" d="M1060.1,245.5c-0.6,0-1-0.5-1-1c0-0.5,0.3-0.9,0.8-1l2.4-0.6c0.5-0.1,1.1,0.2,1.3,0.7
				c0.1,0.5-0.2,1.1-0.7,1.3l-2.4,0.6C1060.2,245.5,1060.2,245.5,1060.1,245.5z"/>
			<path class="st5" d="M1062.4,233.5c-0.1,0-0.2,0-0.3,0l-2.4-0.6c-0.5-0.1-0.9-0.7-0.7-1.3c0.1-0.5,0.7-0.9,1.3-0.7l0,0l2.4,0.6
				c0.5,0.1,0.9,0.7,0.7,1.3C1063.3,233.2,1062.9,233.5,1062.4,233.5z"/>
			<path class="st5" d="M1090,262.8c-0.5,0-0.9-0.3-1-0.8l-0.6-2.4c-0.1-0.5,0.2-1.1,0.7-1.3c0.5-0.1,1.1,0.2,1.3,0.7l0,0l0.6,2.4
				c0.1,0.6-0.2,1.1-0.7,1.3C1090.2,262.8,1090.1,262.8,1090,262.8z"/>
			<path class="st5" d="M1077.4,262.8c-0.6,0-1-0.5-1-1c0-0.1,0-0.2,0-0.3l0.6-2.4c0.1-0.5,0.7-0.9,1.3-0.7c0.5,0.1,0.9,0.7,0.7,1.3
				l0,0l-0.6,2.4C1078.2,262.5,1077.8,262.8,1077.4,262.8z"/>
		</g>
	</g>
	<path class="st3" d="M1061.9,216.7l43.2,43.2c11.9-11.9,11.9-31.3,0-43.2C1093.2,204.7,1073.8,204.7,1061.9,216.7z"/>
	<path class="st4" d="M1079.2,234l8.6,8.6c2.4-2.4,2.4-6.3,0-8.6C1085.5,231.6,1081.6,231.6,1079.2,234z"/>
	<g>
		<path class="st5" d="M1100.8,220c0.6,0,1,0.5,1,1c0,0.3-0.1,0.5-0.3,0.7l-1.7,1.7c-0.4,0.4-1.1,0.4-1.5,0c-0.4-0.4-0.4-1.1,0-1.5
			l1.7-1.7C1100.3,220.1,1100.6,220,1100.8,220z"/>
		<path class="st5" d="M1098.4,228.7c0.6,0,1,0.5,1,1c0,0.4-0.2,0.7-0.5,0.9l-2.1,1.2c-0.5,0.3-1.1,0.1-1.4-0.4
			c-0.3-0.5-0.1-1.1,0.4-1.4l0,0l2.1-1.2C1098,228.8,1098.2,228.7,1098.4,228.7z"/>
		<path class="st5" d="M1098.2,237.3h2.4c0.6,0,1,0.5,1,1c0,0.6-0.5,1-1,1h-2.4c-0.6,0-1-0.5-1-1
			C1097.2,237.7,1097.6,237.3,1098.2,237.3z"/>
		<path class="st5" d="M1096.2,244.6c0.2,0,0.4,0,0.5,0.1l2.1,1.2c0.5,0.3,0.7,0.9,0.4,1.4c-0.3,0.5-0.9,0.7-1.4,0.4l-2.1-1.2
			c-0.5-0.3-0.7-0.9-0.4-1.4C1095.5,244.8,1095.9,244.6,1096.2,244.6L1096.2,244.6z"/>
		<path class="st5" d="M1075,222.5c0.4,0,0.7,0.2,0.9,0.5l1.2,2.1c0.3,0.5,0.1,1.1-0.4,1.4c-0.5,0.3-1.1,0.1-1.4-0.4c0,0,0,0,0,0
			l-1.2-2.1c-0.3-0.5-0.1-1.1,0.4-1.4C1074.6,222.5,1074.8,222.5,1075,222.5L1075,222.5z"/>
		<path class="st5" d="M1083.5,220.2c0.6,0,1,0.5,1,1v2.4c0,0.6-0.5,1-1,1c-0.6,0-1-0.5-1-1v-2.4
			C1082.5,220.6,1083,220.2,1083.5,220.2z"/>
		<path class="st5" d="M1092.1,222.5c0.6,0,1,0.5,1,1c0,0.2,0,0.4-0.1,0.5l-1.2,2.1c-0.3,0.5-0.9,0.7-1.4,0.4
			c-0.5-0.3-0.7-0.9-0.4-1.4v0l1.2-2.1C1091.4,222.6,1091.7,222.5,1092.1,222.5z"/>
		<path class="st5" d="M1107.2,231c0.6,0,1,0.5,1,1c0,0.5-0.3,0.9-0.8,1l-2.4,0.6c-0.5,0.1-1.1-0.2-1.3-0.7s0.2-1.1,0.7-1.3l2.4-0.6
			C1107,231,1107.1,231,1107.2,231z"/>
		<path class="st5" d="M1104.8,243c0.1,0,0.2,0,0.3,0l2.4,0.6c0.5,0.1,0.9,0.7,0.7,1.3c-0.1,0.5-0.7,0.9-1.3,0.7l0,0l-2.4-0.6
			c-0.5-0.1-0.9-0.7-0.7-1.3C1103.9,243.3,1104.3,243,1104.8,243z"/>
		<path class="st5" d="M1077.2,213.7c0.5,0,0.9,0.3,1,0.8l0.6,2.4c0.1,0.5-0.2,1.1-0.7,1.3c-0.5,0.1-1.1-0.2-1.3-0.7l0,0l-0.6-2.4
			c-0.1-0.6,0.2-1.1,0.7-1.3C1077,213.7,1077.1,213.7,1077.2,213.7z"/>
		<path class="st5" d="M1089.9,213.7c0.6,0,1,0.5,1,1c0,0.1,0,0.2,0,0.3l-0.6,2.4c-0.1,0.5-0.7,0.9-1.3,0.7
			c-0.5-0.1-0.9-0.7-0.7-1.3l0,0l0.6-2.4C1089,214,1089.4,213.7,1089.9,213.7z"/>
	</g>
</g>
<g>
	<circle class="st6" cx="786.6" cy="237.7" r="36.2"/>
	<circle class="st7" cx="786.6" cy="237.7" r="34.5"/>
	<circle class="st8" cx="786.6" cy="237.7" r="33.4"/>
	<path class="st9" d="M805.6,243.2c2.4-0.1,3.9-0.7,4-1.5c0.1-0.9-1.2-1.9-3.5-2.8c3.3-0.9,5.5-2,5.4-3c-0.1-1.3-3.1-2.1-7.4-2.3
		c1.8-1.2,2.8-2.3,2.5-3c-0.2-0.6-1.3-0.8-2.9-0.8c2.3-2.2,3.5-4,3-4.8c-0.6-1-3.5-0.4-7.3,1.4c1-1.8,1.3-3.2,0.8-3.7
		c-0.5-0.4-1.7,0-3.2,0.9c2.1-5.6,2.7-10,1.3-10.7c-1.2-0.6-3.7,1.8-6.2,5.8c-0.1-2.4-0.7-3.9-1.5-4c-0.9-0.1-1.9,1.2-2.8,3.5
		c-0.9-3.3-2-5.5-3-5.4c-1.3,0.1-2.1,3.1-2.3,7.4c-1.2-1.8-2.3-2.8-3-2.5c-0.6,0.2-0.8,1.3-0.8,2.9c-2.2-2.3-4-3.5-4.8-2.9
		c-1,0.6-0.4,3.5,1.4,7.3c-1.8-1-3.2-1.3-3.7-0.8c-0.4,0.5,0,1.7,0.9,3.2c-5.6-2.1-10-2.7-10.7-1.3c-0.6,1.2,1.8,3.7,5.8,6.2
		c-2.4,0.1-3.9,0.7-4,1.5c-0.1,0.9,1.2,1.9,3.5,2.8c-3.3,0.9-5.5,2-5.4,3c0.1,1.3,3.1,2.1,7.4,2.3c-1.8,1.2-2.8,2.3-2.5,3
		c0.2,0.6,1.3,0.8,2.9,0.8c-2.3,2.2-3.5,4-3,4.8c0.6,1,3.5,0.4,7.3-1.4c-1,1.8-1.3,3.2-0.8,3.7c0.5,0.4,1.7,0,3.2-0.9
		c-2.1,5.6-2.7,10-1.3,10.7c1.2,0.6,3.7-1.8,6.2-5.8c0.1,2.4,0.7,3.9,1.5,4c0.9,0.1,1.9-1.2,2.8-3.5c0.9,3.3,2,5.5,3,5.4
		c1.3-0.1,2.1-3.1,2.3-7.4c1.2,1.8,2.3,2.8,3,2.5c0.6-0.2,0.8-1.3,0.8-2.9c2.2,2.3,4,3.5,4.8,3c1-0.6,0.4-3.5-1.4-7.3
		c1.8,1,3.2,1.3,3.7,0.8c0.4-0.5,0-1.7-0.9-3.2c5.6,2.1,10,2.7,10.7,1.3C812,248.2,809.6,245.8,805.6,243.2z"/>
	<circle class="st10" cx="786.6" cy="237.7" r="10.2"/>
	<circle class="st11" cx="786.6" cy="237.7" r="6.7"/>
	<g>
		<path class="st12" d="M788,253.3c0,0.5-0.4,0.8-0.8,0.8c-0.5,0-0.8-0.4-0.8-0.8c0-0.5,0.8-1.4,0.8-1.4S788,252.9,788,253.3z"/>
		<path class="st12" d="M775,246.2c-0.4,0.2-0.9,0-1.1-0.4c-0.2-0.4,0-0.9,0.4-1.1c0.4-0.2,1.6,0.2,1.6,0.2S775.4,246,775,246.2z"/>
		<path class="st12" d="M795.5,248c0.3,0.3,0.9,0.4,1.2,0c0.3-0.3,0.4-0.9,0-1.2c-0.3-0.3-1.6-0.5-1.6-0.5S795.2,247.6,795.5,248z"
			/>
		<path class="st12" d="M801.2,237c0.4-0.1,0.7-0.6,0.6-1c-0.1-0.4-0.6-0.7-1-0.6c-0.4,0.1-1.2,1.2-1.2,1.2S800.7,237.1,801.2,237z"
			/>
		<path class="st12" d="M791.1,222.4c0.1-0.4-0.1-0.9-0.5-1.1s-0.9,0.1-1.1,0.5c-0.1,0.4,0.3,1.6,0.3,1.6S791,222.8,791.1,222.4z"/>
		<path class="st12" d="M780.3,224.8c-0.3-0.4-0.8-0.4-1.2-0.1c-0.4,0.3-0.5,0.8-0.2,1.2c0.3,0.4,1.5,0.6,1.5,0.6
			S780.6,225.2,780.3,224.8z"/>
		<path class="st12" d="M774.7,233.6c-0.4,0-0.9,0.3-0.9,0.8c0,0.5,0.2,0.9,0.7,1c0.4,0,1.5-0.7,1.5-0.7S775.1,233.6,774.7,233.6z"
			/>
		<path class="st12" d="M799.4,229c0.3-0.3,0.3-0.9,0-1.2c-0.3-0.3-0.9-0.4-1.2-0.1c-0.3,0.3-0.4,1.6-0.4,1.6S799.1,229.3,799.4,229
			z"/>
	</g>
</g>
<g>
	<path class="st13" d="M989.4,212c-3.2,0.8-6.5,0.8-9.7,0c-16.5-4.1-30.4-2.5-30.2,28.7c0.1,16,15,36.7,30.8,33.2
		c2.8-0.6,5.8-0.6,8.6,0c15.7,3.5,30.7-17.2,30.8-33.2C1019.8,209.4,1006,207.9,989.4,212z"/>
	<path class="st14" d="M957.2,232.7c-0.9,0-1.5-0.7-1.5-1.5c0-8.5,6.2-15.4,13.8-15.4c0.9,0,1.5,0.7,1.5,1.5c0,0.8-0.7,1.5-1.5,1.5
		c-5.9,0-10.8,5.5-10.8,12.3C958.8,232,958.1,232.7,957.2,232.7z"/>
	<path class="st15" d="M984.5,217.8c-0.8,0-1.5-0.7-1.5-1.5c-0.2-6.5-2.7-14.7-9.1-18.1c-0.7-0.4-1-1.3-0.6-2.1
		c0.4-0.7,1.3-1,2.1-0.6c7.6,4,10.5,13.3,10.7,20.7C986.1,217,985.4,217.7,984.5,217.8C984.5,217.8,984.5,217.8,984.5,217.8z"/>
	<path class="st16" d="M984.3,223.3c-2.6,0-5-1-6.8-2.8c-0.6-0.6-0.6-1.6,0-2.2s1.6-0.6,2.2,0c1.2,1.2,2.9,1.9,4.7,1.9
		c1.8,0,3.4-0.7,4.7-1.9c0.6-0.6,1.6-0.6,2.2,0c0.6,0.6,0.6,1.6,0,2.2C989.4,222.3,986.9,223.3,984.3,223.3z"/>
	<path class="st17" d="M983,207.1l0.9-6.3c1-6.6,6.2-11.8,12.8-12.8l6.3-0.9l-0.9,6.3c-1,6.6-6.2,11.8-12.8,12.8L983,207.1z"/>
</g>
<g>
	<path class="st18" d="M901.1,217.6l-7.4-0.6l2.7-6.9c0.4-1.1,1-2.2,1.7-3.2c-4.3-1.9-9-2.9-14-2.9c-19.2,0-34.8,15.6-34.8,34.8
		s15.6,34.8,34.8,34.8s34.8-15.6,34.8-34.8c0-8.8-3.3-16.8-8.6-22.9C907.5,217.3,904.4,217.9,901.1,217.6z"/>
	<circle class="st19" cx="904.1" cy="225.7" r="2.9"/>
	<circle class="st19" cx="911.8" cy="241.9" r="2.9"/>
	<circle class="st19" cx="911.3" cy="233" r="2.9"/>
	<circle class="st19" cx="902.6" cy="238.8" r="2.9"/>
	<circle class="st19" cx="904.1" cy="248.9" r="2.9"/>
	<circle class="st19" cx="878" cy="214.2" r="2.9"/>
	<circle class="st19" cx="867.9" cy="218.5" r="2.9"/>
	<g>
		<path class="st18" d="M888.5,215.6c0,0,6.2,1,7.8,5.2"/>
		<path class="st20" d="M896.3,222.3c-0.6,0-1.1-0.3-1.3-0.9c-1.3-3.4-6.7-4.3-6.7-4.3c-0.8-0.1-1.3-0.9-1.2-1.7
			c0.1-0.8,0.9-1.3,1.7-1.2c0.3,0,7,1.2,8.9,6.1c0.3,0.7-0.1,1.6-0.8,1.9C896.7,222.3,896.5,222.3,896.3,222.3z"/>
	</g>
	<g>
		<path class="st18" d="M889.3,220c1.5-1.7,3.4-2.9,5.5-3.7"/>
		<path class="st20" d="M889.3,221.4c-0.3,0-0.7-0.1-1-0.4c-0.6-0.5-0.6-1.5-0.1-2c1.7-1.8,3.7-3.2,6.1-4.1c0.7-0.3,1.6,0.1,1.9,0.8
			c0.3,0.7-0.1,1.6-0.8,1.9c-1.9,0.7-3.6,1.9-4.9,3.3C890.1,221.3,889.7,221.4,889.3,221.4z"/>
	</g>
	<path class="st17" d="M921.8,199.6l-7.4-0.6c-7.8-0.6-15.1,3.9-18,11.1l-2.7,6.9l7.4,0.6c7.8,0.6,15.1-3.9,18-11.1L921.8,199.6z"/>
	<path class="st21" d="M894.6,215l-0.8,2l1,0.1c9.1-8.9,18.9-11.8,20-11.8l0.1-0.8l0.6,0.6l0.2-0.9l-0.6-0.6
		C914.2,203.4,904,206.2,894.6,215z"/>
</g>
</svg>
